<svg xmlns="http://www.w3.org/2000/svg" width="32" height="32"><path fill="#FFD561" d="M12 8h1v14h-1zM10 8h1v14h-1zM14 8v14h14V10s-1-2-2-2H14z"/><path fill="#2D2220" d="M28.5 6h-25C2.67 6 2 6.67 2 7.5v16c0 .83.67 1.5 1.5 1.5H15v2h-5v1h12v-1h-5v-2h11.5c.83 0 1.5-.67 1.5-1.5v-16c0-.83-.67-1.5-1.5-1.5zm.5 15H6v1h23v1.5c0 .28-.22.5-.5.5h-25c-.28 0-.5-.22-.5-.5v-16c0-.28.22-.5.5-.5h25c.28 0 .5.22.5.5V21z"/><path fill="#2D2220" d="M28 9.5v10h-1v-10c0-.4-.28-.49-.51-.5H5.5c-.4 0-.49.27-.5.51V22H4V9.5C4 8.9 4.4 8 5.5 8h21c.6 0 1.5.4 1.5 1.5z"/><path fill="#FFD561" d="M11 28h8v1h-8zM20 28h3v1h-3z"/></svg>